inDegrees=no
num_controls=7
num_derivatives=13
num_iterations=79
num_multipliers=7
num_parameters=0
num_slacks=7
num_states=26
objective=0.452290
objective_accelerations=0.049455
objective_balance=0.001075
objective_effort=0.038404
objective_height=0.357672
objective_ligament=0.005684
solver_duration=920.072924
status=Solve_Succeeded
success=true
DataType=double
version=3
OpenSimVersion=4.5
endheader
time	/jointset/ground_pelvis/pelvis_tilt/value	/jointset/ground_pelvis/pelvis_tx/value	/jointset/ground_pelvis/pelvis_ty/value	/jointset/hip_r/hip_flexion_r/value	/jointset/hip_r/hip_adduction_r/value	/jointset/hip_r/hip_rotation_r/value	/jointset/back/lumbar_extension/value	/jointset/patellofemoral_r/patellar_flexion_r/value	/jointset/knee_r/knee_flexion_r/value	/jointset/knee_r/knee_adduction_r/value	/jointset/knee_r/knee_rotation_r/value	/jointset/ankle_r/ankle_angle_r/value	/jointset/subtalar_r/subtalar_angle_r/value	/jointset/ground_pelvis/pelvis_tilt/speed	/jointset/ground_pelvis/pelvis_tx/speed	/jointset/ground_pelvis/pelvis_ty/speed	/jointset/hip_r/hip_flexion_r/speed	/jointset/hip_r/hip_adduction_r/speed	/jointset/hip_r/hip_rotation_r/speed	/jointset/back/lumbar_extension/speed	/jointset/patellofemoral_r/patellar_flexion_r/speed	/jointset/knee_r/knee_flexion_r/speed	/jointset/knee_r/knee_adduction_r/speed	/jointset/knee_r/knee_rotation_r/speed	/jointset/ankle_r/ankle_angle_r/speed	/jointset/subtalar_r/subtalar_angle_r/speed	/forceset/tau_hip_flexion_r	/forceset/tau_hip_adduction_r	/forceset/tau_hip_rotation_r	/forceset/tau_knee_flexion_r	/forceset/tau_ankle_angle_r	/forceset/tau_subtalar_angle_r	/forceset/tau_lumbar_extension	lambda_cid13_p0	lambda_cid14_p0	lambda_cid14_p1	lambda_cid14_p2	lambda_cid14_p3	lambda_cid14_p4	lambda_cid14_p5	/jointset/ground_pelvis/pelvis_tilt/accel	/jointset/ground_pelvis/pelvis_tx/accel	/jointset/ground_pelvis/pelvis_ty/accel	/jointset/hip_r/hip_flexion_r/accel	/jointset/hip_r/hip_adduction_r/accel	/jointset/hip_r/hip_rotation_r/accel	/jointset/back/lumbar_extension/accel	/jointset/patellofemoral_r/patellar_flexion_r/accel	/jointset/knee_r/knee_flexion_r/accel	/jointset/knee_r/knee_adduction_r/accel	/jointset/knee_r/knee_rotation_r/accel	/jointset/ankle_r/ankle_angle_r/accel	/jointset/subtalar_r/subtalar_angle_r/accel	gamma_cid13_p0	gamma_cid14_p0	gamma_cid14_p1	gamma_cid14_p2	gamma_cid14_p3	gamma_cid14_p4	gamma_cid14_p5
0.5	-0.1378523171709213	0.02051939891822208	0.8012908262121905	0.9116440665792108	-0.2189351814626829	-0.1333743610891297	-0.6492839444364761	0.9752105916797172	0.9752105916795859	-0.07104229104135505	0.1745244050417791	0.2975145844192978	0.146103025277031	-0.371133378818275	-0.2075366087791073	-0.5250381030469787	1.921753146697073	-0.03945458779738331	0.1997232883271352	-0.7336412153384938	1.984196411647916	1.984196411647863	-0.4142405114969644	-0.0002751256099933388	0.533476380414771	0.1553104917588581	-0.1973037360411641	0.01537408070421423	0.01711041458683052	-0.2979708105036165	0.01307210977947811	-0.003383946188425897	0.2406617251085862	-7.562703184861074	-38.71545659959448	-8.198708186570665	1.672221801678497	-4.622439061436125	-640.8851476280425	57.39918647635944	0.3667655132795094	0.619933916843735	-0.4308072355833473	-1.302651356954338	-0.1875349651062059	-0.4681240980538279	1.865377977443325	-1.398209784763728	-1.398209784763772	0.5218247607964854	-0.03678436538587598	-0.6287983894501759	-0.3915820998651986	-8.310196907463846e-08	5.809596479893177e-08	1.639844147031319e-06	1.297051963809738e-07	-1.951205220601261e-07	-1.655747133224227e-07	1.131081716753189e-06
0.51	-0.1415444924337828	0.01847519818234328	0.7960201463597321	0.930793471630424	-0.2193394162659821	-0.1314023374270789	-0.656526534674615	0.9949794610890127	0.9949794610887469	-0.07515875183652949	0.1745218050093431	0.3028168078776705	0.1476354995448641	-0.3672406743673611	-0.201287495269893	-0.5289773943205843	1.907866202792448	-0.04138759055216263	0.1947259333465289	-0.714794056788446	1.969306377888036	1.969306377887981	-0.4089708147421036	-0.0002506174963089925	0.5268810415074291	0.1511380066481836	-0.2038141116365864	0.01653055883583562	0.01742791734857198	-0.3031772886261972	0.01229865040834788	-0.003191827109661888	0.2467618973747883	-6.639364960838621	-39.31821781085417	-8.420839355987406	1.936116526305045	-4.53754608808199	-646.1331964206263	57.53999950209941	0.4096903126559743	0.6297569967333553	-0.3574464301907996	-1.470946499649325	-0.1952760669008391	-0.5089493737570393	1.906801118922006	-1.575052235440846	-1.575052235440991	0.5419180973602221	0.02138013749320096	-0.6880457111530701	-0.4366714895864625	-5.415646199153913e-08	1.222451301115869e-07	1.831838057124265e-06	6.271085410052871e-07	-2.477724306491916e-07	-1.310307800682178e-07	1.289049840629579e-06
0.52	-0.1451959071718043	0.01649395996731123	0.7907136823231493	0.9497961611241036	-0.2197627997240768	-0.1294789689499778	-0.6635781700622262	1.014591299747923	1.014591299747565	-0.0792200404712493	0.1745193124055797	0.3080504491330155	0.1491249310070069	-0.3629812738500968	-0.1949441046097568	-0.5321949398718576	1.892410035190516	-0.0432843187564129	0.1899922513381953	-0.6954502452329369	1.95279026157453	1.952790261574475	-0.403206079406063	-0.0002536398727211603	0.5197599398090119	0.1467019306207916	-0.2103244872320096	0.01768703696742947	0.01774542011056628	-0.3083837667487457	0.01152519103721217	-0.002999708030941744	0.2528620696409903	-5.779142956613558	-39.91824033941744	-8.636296717194242	2.191873308622141	-4.479994248556826	-651.3531509678335	57.7010474631245	0.4401047265496394	0.6387893470280974	-0.2864580911169198	-1.616496096415777	-0.1802800550003672	-0.4153895035992804	1.964708578535569	-1.723426295488812	-1.723426295488584	0.6208324770324425	-0.04229046340515527	-0.7339509476652369	-0.4443002832087299	-4.452853034926045e-08	1.310808265834285e-07	1.774061341500045e-06	6.671239258264888e-07	-2.479165636234806e-07	-1.197225554354147e-07	1.287252682676833e-06
0.53	-0.1488029775072376	0.01457655559578587	0.785378671116175	0.9686366486631878	-0.2202048733644535	-0.1276016766836039	-0.6704339799519708	1.034030018255477	1.034030018255315	-0.08322148131170017	0.174516590871647	0.3132103608093422	0.1505688471809493	-0.3583748259328069	-0.1885273219003538	-0.5346837009628196	1.875435590664898	-0.04511954637106148	0.1855026147842788	-0.6756438717096219	1.934694308763075	1.934694308763076	-0.3970156844876055	-0.0002920236734372146	0.5121438562428006	0.1420462408635473	-0.216722853274067	0.01883835957929621	0.01799536185030787	-0.3136886026703041	0.01068706390493846	-0.002869829576532111	0.2588268839582378	-4.98234788274858	-40.55228269647361	-8.884493850107273	2.452565044844996	-4.335630765681315	-656.6447846963265	57.81664041075154	0.479629320210723	0.644490303658009	-0.21156779063802	-1.775680131419907	-0.18332946274239	-0.4603513320779977	1.998780890192656	-1.891541555665351	-1.891541555657102	0.6283310358799357	0.01537416856485522	-0.7872651502102805	-0.4811083469266432	-3.56140112144306e-08	1.390283351489745e-07	1.714506308459295e-06	6.998150993299673e-07	-2.47692779202599e-07	-1.083280048068378e-07	1.28336059193836e-06
0.54	-0.1523622404643202	0.01272359256550683	0.7800224757637807	0.9872998394568584	-0.2206649363505861	-0.1257682009029255	-0.6770896902762897	1.053280004878579	1.053280004878608	-0.08715898059563994	0.1745134828011032	0.3182917460321842	0.1519652254523304	-0.3534197981798331	-0.1820558363604927	-0.5364317689558703	1.856950686107876	-0.04688218790752401	0.1812289541987565	-0.6554303321477767	1.915043884683959	1.915043884684014	-0.3904177681040486	-0.0003309471953649866	0.5040546491121417	0.1371943501085284	-0.2231212193161229	0.01998968219116883	0.0182453035899906	-0.3189934385918701	0.00984893677266584	-0.002739951122112676	0.2647916982754865	-4.248813235465818	-41.1843871661284	-9.126520704177098	2.705614162327759	-4.218329523348499	-661.9222399123064	57.94969331097197	0.5098206936864463	0.64972991311969	-0.1383194715346481	-1.918588102696516	-0.1657628393631661	-0.3721943099204586	2.046141786241671	-2.034320549021144	-2.034320549021272	0.7023367700523006	-0.04239840764749289	-0.8285756605547069	-0.4835404827636273	-2.748879953465054e-08	1.45993167733087e-07	1.652983775298128e-06	7.244028900989434e-07	-2.470619372381243e-07	-9.683794456591548e-08	1.27715070322419e-06
0.55	-0.1558703112566728	0.01093554262056926	0.7746524960634856	1.00577088380217	-0.2211421510320283	-0.1239765098376257	-0.6835413406915328	1.072325912925244	1.072325912925434	-0.09102883977928954	0.1745098948868503	0.3232899948338427	0.1533123114826685	-0.3481402824678168	-0.175551647072374	-0.5374398750018482	1.837019844298739	-0.04854167458960451	0.1771272834554211	-0.6348495758669296	1.893892390172256	1.893892390172275	-0.3835167139562284	-0.0003856928694578539	0.495526547386816	0.1322044258691892	-0.229329244863482	0.02108008276169457	0.01842060930693522	-0.3243367580814583	0.008934260148402465	-0.002627505560454859	0.2705358230506793	-3.578221124075859	-41.84213890166355	-9.375957031192787	2.954529074587344	-4.010709802851625	-667.14211155826	58.07383448015302	0.5451493646962301	0.6510899262655044	-0.06342987006938919	-2.066060587057329	-0.1630029485925931	-0.4264963063865908	2.071568804097841	-2.192359462317154	-2.192359462322461	0.6897957456116715	0.01332959820175916	-0.8752527409299109	-0.5091423372557491	-1.940088166279174e-08	1.519923637479685e-07	1.585451815492064e-06	7.432351834379949e-07	-2.452189817991459e-07	-8.621153374658384e-08	1.266913367789749e-06
0.5600000000000001	-0.1593239604209583	0.009212599866434374	0.769276160562943	1.024035474055983	-0.2216353528534833	-0.122225304049731	-0.689785678292949	1.091152946914773	1.091152946915136	-0.09482852721976796	0.1745058279649546	0.3282008975557668	0.1546090134820658	-0.3425354725663176	-0.1690343981999568	-0.537702929005427	1.815659867808199	-0.05007961591016576	0.1731318987182227	-0.6139677693824159	1.87126907325766	1.871269073257643	-0.376383419469815	-0.0004267487238730092	0.4865854331651537	0.1271175439203819	-0.2355372704108404	0.02217048333221043	0.01859591502396228	-0.3296800775710358	0.00801958352413653	-0.002515059998815346	0.276279947825873	-2.969315245884783	-42.49896702189707	-9.619587757298921	3.196073186544858	-3.829161738365699	-672.3655135799537	58.214040754292	0.5748795315830332	0.6523418299793771	0.0106909369451737	-2.204415038977419	-0.1414537670593079	-0.3509371086930794	2.106351826975013	-2.328685029599913	-2.328685029600124	0.7487848377709317	-0.03966044371193635	-0.9111781598220394	-0.5029320246572789	-1.135771636043846e-08	1.568327958797729e-07	1.510708543712121e-06	7.551608798611371e-07	-2.419214901907631e-07	-7.662150223316104e-08	1.251843096290985e-06
0.5700000000000001	-0.1627200445938802	0.007554844624378125	0.7639009023323133	1.042079541796892	-0.222143276305641	-0.1205133784860313	-0.6958197763836373	1.109746616579832	1.10974661658002	-0.09855576638134859	0.174501232196167	0.3330204591779106	0.1558544863560828	-0.3366315368358234	-0.1625186554412727	-0.5372245895595571	1.792925418447622	-0.05148411688002597	0.1692764121099224	-0.5928175791743399	1.847236069647152	1.847236069647143	-0.3690256406874045	-0.0004945129336042643	0.4772698495433289	0.1219664079625807	-0.2414788874634215	0.02317758153233623	0.01870993742038105	-0.3351203416075103	0.007206924463720093	-0.002436222368091175	0.281752489828458	-2.420863225097267	-43.12034181133897	-9.871610058547034	3.438957408504514	-3.620726780062074	-677.4736543602718	58.34001447971034	0.6056458520318614	0.6508417030489461	0.08501034317960808	-2.342175722096974	-0.1366387322304868	-0.3994051292250832	2.124493054865493	-2.474925181211799	-2.474925181210482	0.7352648280291599	0.009554563380936951	-0.9503383129701078	-0.5224783435427267	-4.089642284033658e-09	1.608388906236766e-07	1.440703759384132e-06	7.633093885993141e-07	-2.383777322270231e-07	-6.819873789714436e-08	1.23798500316769e-06
0.58	-0.166055590357848	0.005962177050755901	0.7585341484750967	1.059889421876695	-0.2226645828615536	-0.1188393179268811	-0.7016413444848164	1.128093092777898	1.128093092777915	-0.1022082296691948	0.1744959365798791	0.3377451469939148	0.1570481930780816	-0.3304277907753574	-0.1560168645131517	-0.5360020543228182	1.768822335587079	-0.05275623666112911	0.1655588978085574	-0.5714617714805994	1.821830379859221	1.821830379859222	-0.3614282447228719	-0.0005667182239490942	0.4676106719372081	0.1167643135167313	-0.2474205045160013	0.02418467973245763	0.01882395981683508	-0.3405606056439799	0.006394265403302435	-0.002357384737375407	0.2872250318310442	-1.931787201898563	-43.7419899076103	-10.11826062423912	3.674796259672462	-3.437374265925072	-682.6055213470743	58.48119860365363	0.634841597577385	0.6495514638667705	0.1595300951189821	-2.478141738970594	-0.1149775293078973	-0.3233426473060534	2.147475324107912	-2.603222265084438	-2.603222265084319	0.7967082741953248	-0.04054865983463454	-0.9798969566812242	-0.5131237222669529	2.169010660903309e-09	1.637584064438028e-07	1.376870028481944e-06	7.665387691896295e-07	-2.345132552888644e-07	-6.129613546658681e-08	1.225705560951982e-06
